<svg width="20" height="20" viewBox="0 0 20 20" fill="none" xmlns="http://www.w3.org/2000/svg">
<path d="M15 3.33341H14.1667V2.50008C14.1667 2.27907 14.0789 2.06711 13.9226 1.91083C13.7663 1.75455 13.5543 1.66675 13.3333 1.66675C13.1123 1.66675 12.9004 1.75455 12.7441 1.91083C12.5878 2.06711 12.5 2.27907 12.5 2.50008V3.33341H7.5V2.50008C7.5 2.27907 7.4122 2.06711 7.25592 1.91083C7.09964 1.75455 6.88768 1.66675 6.66667 1.66675C6.44565 1.66675 6.23369 1.75455 6.07741 1.91083C5.92113 2.06711 5.83333 2.27907 5.83333 2.50008V3.33341H5C4.33696 3.33341 3.70107 3.59681 3.23223 4.06565C2.76339 4.53449 2.5 5.17037 2.5 5.83341V15.8334C2.5 16.4965 2.76339 17.1323 3.23223 17.6012C3.70107 18.07 4.33696 18.3334 5 18.3334H15C15.663 18.3334 16.2989 18.07 16.7678 17.6012C17.2366 17.1323 17.5 16.4965 17.5 15.8334V5.83341C17.5 5.17037 17.2366 4.53449 16.7678 4.06565C16.2989 3.59681 15.663 3.33341 15 3.33341ZM5 5.00008H5.83333V5.83341C5.83333 6.05443 5.92113 6.26639 6.07741 6.42267C6.23369 6.57895 6.44565 6.66675 6.66667 6.66675C6.88768 6.66675 7.09964 6.57895 7.25592 6.42267C7.4122 6.26639 7.5 6.05443 7.5 5.83341V5.00008H12.5V5.83341C12.5 6.05443 12.5878 6.26639 12.7441 6.42267C12.9004 6.57895 13.1123 6.66675 13.3333 6.66675C13.5543 6.66675 13.7663 6.57895 13.9226 6.42267C14.0789 6.26639 14.1667 6.05443 14.1667 5.83341V5.00008H15C15.221 5.00008 15.433 5.08788 15.5893 5.24416C15.7455 5.40044 15.8333 5.6124 15.8333 5.83341V9.16675H4.16667V5.83341C4.16667 5.6124 4.25446 5.40044 4.41074 5.24416C4.56702 5.08788 4.77899 5.00008 5 5.00008ZM15 16.6667H5C4.77899 16.6667 4.56702 16.579 4.41074 16.4227C4.25446 16.2664 4.16667 16.0544 4.16667 15.8334V10.8334H15.8333V15.8334C15.8333 16.0544 15.7455 16.2664 15.5893 16.4227C15.433 16.579 15.221 16.6667 15 16.6667Z" fill="#D5D5D7"/>
<path d="M6.66634 14.1667C7.12658 14.1667 7.49967 13.7936 7.49967 13.3333C7.49967 12.8731 7.12658 12.5 6.66634 12.5C6.2061 12.5 5.83301 12.8731 5.83301 13.3333C5.83301 13.7936 6.2061 14.1667 6.66634 14.1667Z" fill="#D5D5D7"/>
<path d="M13.3337 12.5H10.0003C9.77931 12.5 9.56735 12.5878 9.41107 12.7441C9.25479 12.9004 9.16699 13.1123 9.16699 13.3333C9.16699 13.5543 9.25479 13.7663 9.41107 13.9226C9.56735 14.0789 9.77931 14.1667 10.0003 14.1667H13.3337C13.5547 14.1667 13.7666 14.0789 13.9229 13.9226C14.0792 13.7663 14.167 13.5543 14.167 13.3333C14.167 13.1123 14.0792 12.9004 13.9229 12.7441C13.7666 12.5878 13.5547 12.5 13.3337 12.5Z" fill="#D5D5D7"/>
</svg>
