<svg width="20" height="20" viewBox="0 0 20 20" fill="none" xmlns="http://www.w3.org/2000/svg">
<path d="M16.2913 17.1458L11.0413 11.9167C10.6247 12.2639 10.1455 12.5347 9.60384 12.7292C9.06217 12.9236 8.50662 13.0208 7.93717 13.0208C6.50662 13.0208 5.29829 12.5278 4.31217 11.5417C3.32606 10.5556 2.83301 9.34722 2.83301 7.91667C2.83301 6.5 3.32606 5.295 4.31217 4.30167C5.29829 3.30889 6.50662 2.8125 7.93717 2.8125C9.35384 2.8125 10.5552 3.30556 11.5413 4.29167C12.5275 5.27778 13.0205 6.48611 13.0205 7.91667C13.0205 8.51389 12.9233 9.08333 12.7288 9.625C12.5344 10.1667 12.2705 10.6389 11.9372 11.0417L17.1663 16.2708L16.2913 17.1458ZM7.93717 11.7708C9.00662 11.7708 9.91301 11.3958 10.6563 10.6458C11.3991 9.89583 11.7705 8.98611 11.7705 7.91667C11.7705 6.84722 11.3991 5.9375 10.6563 5.1875C9.91301 4.4375 9.00662 4.0625 7.93717 4.0625C6.85384 4.0625 5.94079 4.4375 5.19801 5.1875C4.45467 5.9375 4.08301 6.84722 4.08301 7.91667C4.08301 8.98611 4.45467 9.89583 5.19801 10.6458C5.94079 11.3958 6.85384 11.7708 7.93717 11.7708Z" fill="#373739"/>
</svg>
