<svg width="13" height="13" viewBox="0 0 13 13" fill="none" xmlns="http://www.w3.org/2000/svg">
<g clip-path="url(#clip0_176_43677)">
<path d="M6.50017 1.08325C5.42885 1.08325 4.38159 1.40093 3.49083 1.99612C2.60006 2.59132 1.90579 3.43728 1.49582 4.42705C1.08584 5.41682 0.978575 6.50593 1.18758 7.55666C1.39658 8.60739 1.91247 9.57255 2.67 10.3301C3.42754 11.0876 4.3927 11.6035 5.44343 11.8125C6.49416 12.0215 7.58327 11.9142 8.57303 11.5043C9.5628 11.0943 10.4088 10.4 11.004 9.50926C11.5991 8.61849 11.9168 7.57123 11.9168 6.49992C11.9168 5.78859 11.7767 5.08423 11.5045 4.42705C11.2323 3.76987 10.8333 3.17274 10.3303 2.66976C9.82734 2.16677 9.23022 1.76778 8.57303 1.49557C7.91585 1.22336 7.21149 1.08325 6.50017 1.08325ZM7.04183 8.66659C7.04183 8.81024 6.98476 8.94802 6.88318 9.0496C6.7816 9.15118 6.64382 9.20825 6.50017 9.20825C6.35651 9.20825 6.21873 9.15118 6.11715 9.0496C6.01557 8.94802 5.9585 8.81024 5.9585 8.66659V5.95825C5.9585 5.81459 6.01557 5.67682 6.11715 5.57524C6.21873 5.47365 6.35651 5.41659 6.50017 5.41659C6.64382 5.41659 6.7816 5.47365 6.88318 5.57524C6.98476 5.67682 7.04183 5.81459 7.04183 5.95825V8.66659ZM6.50017 4.87492C6.39303 4.87492 6.28831 4.84315 6.19923 4.78363C6.11015 4.72411 6.04073 4.63952 5.99973 4.54054C5.95873 4.44156 5.94801 4.33265 5.96891 4.22758C5.98981 4.12251 6.0414 4.02599 6.11715 3.95024C6.1929 3.87448 6.28942 3.82289 6.39449 3.80199C6.49956 3.78109 6.60848 3.79182 6.70745 3.83282C6.80643 3.87381 6.89103 3.94324 6.95054 4.03232C7.01006 4.12139 7.04183 4.22612 7.04183 4.33325C7.04183 4.47691 6.98476 4.61469 6.88318 4.71627C6.7816 4.81785 6.64382 4.87492 6.50017 4.87492Z" fill="#69696B"/>
</g>
<defs>
<clipPath id="clip0_176_43677">
<rect width="13" height="13" fill="white"/>
</clipPath>
</defs>
</svg>
