<svg width="24" height="24" viewBox="0 0 24 24" fill="none" xmlns="http://www.w3.org/2000/svg">
<path d="M2 12C2 17.5228 6.47715 22 12 22C17.5228 22 22 17.5228 22 12C22 6.47715 17.5228 2 12 2C6.47715 2 2 6.47715 2 12Z" stroke="#373739" stroke-width="2" stroke-linecap="round" stroke-linejoin="round"/>
<path d="M13 2C13 2 16 5.97022 16 11.9999C16 18.0297 13 22 13 22" stroke="#373739" stroke-width="2" stroke-linecap="round" stroke-linejoin="round"/>
<path d="M11 22C11 22 8 18.0297 8 11.9999C8 5.97022 11 2 11 2" stroke="#373739" stroke-width="2" stroke-linecap="round" stroke-linejoin="round"/>
<path d="M3 15H21" stroke="#373739" stroke-width="2" stroke-linecap="round" stroke-linejoin="round"/>
<path d="M3 9H21" stroke="#373739" stroke-width="2" stroke-linecap="round" stroke-linejoin="round"/>
</svg>
