<svg width="30" height="31" viewBox="0 0 30 31" fill="none" xmlns="http://www.w3.org/2000/svg">
<path d="M22.5 1.9375H7.5C4.3934 1.9375 1.875 4.53984 1.875 7.75V23.25C1.875 26.4602 4.3934 29.0625 7.5 29.0625H22.5C25.6066 29.0625 28.125 26.4602 28.125 23.25V7.75C28.125 4.53984 25.6066 1.9375 22.5 1.9375Z" fill="url(#paint0_radial_2004_31870)"/>
<path d="M22.5 1.9375H7.5C4.3934 1.9375 1.875 4.53984 1.875 7.75V23.25C1.875 26.4602 4.3934 29.0625 7.5 29.0625H22.5C25.6066 29.0625 28.125 26.4602 28.125 23.25V7.75C28.125 4.53984 25.6066 1.9375 22.5 1.9375Z" fill="url(#paint1_radial_2004_31870)"/>
<path d="M22.5 1.9375H7.5C4.3934 1.9375 1.875 4.53984 1.875 7.75V23.25C1.875 26.4602 4.3934 29.0625 7.5 29.0625H22.5C25.6066 29.0625 28.125 26.4602 28.125 23.25V7.75C28.125 4.53984 25.6066 1.9375 22.5 1.9375Z" fill="url(#paint2_radial_2004_31870)"/>
<path d="M21.5625 10.1719C21.5625 10.9744 20.9329 11.625 20.1562 11.625C19.3796 11.625 18.75 10.9744 18.75 10.1719C18.75 9.36933 19.3796 8.71875 20.1562 8.71875C20.9329 8.71875 21.5625 9.36933 21.5625 10.1719Z" fill="white"/>
<path fill-rule="evenodd" clip-rule="evenodd" d="M15 20.3438C17.5888 20.3438 19.6875 18.1751 19.6875 15.5C19.6875 12.8249 17.5888 10.6562 15 10.6562C12.4112 10.6562 10.3125 12.8249 10.3125 15.5C10.3125 18.1751 12.4112 20.3438 15 20.3438ZM15 18.4062C16.5533 18.4062 17.8125 17.1051 17.8125 15.5C17.8125 13.8949 16.5533 12.5938 15 12.5938C13.4467 12.5938 12.1875 13.8949 12.1875 15.5C12.1875 17.1051 13.4467 18.4062 15 18.4062Z" fill="white"/>
<path fill-rule="evenodd" clip-rule="evenodd" d="M5.625 15.1125C5.625 11.8572 5.625 10.2295 6.23809 8.98618C6.77738 7.89248 7.63789 7.00329 8.69631 6.44602C9.89953 5.8125 11.4747 5.8125 14.625 5.8125H15.375C18.5253 5.8125 20.1005 5.8125 21.3037 6.44602C22.3621 7.00329 23.2226 7.89248 23.7619 8.98618C24.375 10.2295 24.375 11.8572 24.375 15.1125V15.8875C24.375 19.1428 24.375 20.7705 23.7619 22.0138C23.2226 23.1075 22.3621 23.9967 21.3037 24.5539C20.1005 25.1875 18.5253 25.1875 15.375 25.1875H14.625C11.4747 25.1875 9.89953 25.1875 8.69631 24.5539C7.63789 23.9967 6.77738 23.1075 6.23809 22.0138C5.625 20.7705 5.625 19.1428 5.625 15.8875V15.1125ZM14.625 7.75H15.375C16.9811 7.75 18.0728 7.75151 18.9168 7.82275C19.7389 7.89215 20.1593 8.01795 20.4525 8.17235C21.1581 8.54386 21.7317 9.13666 22.0912 9.86575C22.2407 10.1688 22.3625 10.6032 22.4296 11.4527C22.4985 12.3247 22.5 13.4528 22.5 15.1125V15.8875C22.5 17.5472 22.4985 18.6753 22.4296 19.5473C22.3625 20.3968 22.2407 20.8312 22.0912 21.1342C21.7317 21.8633 21.1581 22.4561 20.4525 22.8276C20.1593 22.982 19.7389 23.1079 18.9168 23.1772C18.0728 23.2484 16.9811 23.25 15.375 23.25H14.625C13.0189 23.25 11.9272 23.2484 11.0832 23.1772C10.2611 23.1079 9.84075 22.982 9.5475 22.8276C8.84193 22.4561 8.26825 21.8633 7.90872 21.1342C7.7593 20.8312 7.63757 20.3968 7.57041 19.5473C7.50146 18.6753 7.5 17.5472 7.5 15.8875V15.1125C7.5 13.4528 7.50146 12.3247 7.57041 11.4527C7.63757 10.6032 7.7593 10.1688 7.90872 9.86575C8.26825 9.13666 8.84193 8.54386 9.5475 8.17235C9.84075 8.01795 10.2611 7.89215 11.0832 7.82275C11.9272 7.75151 13.0189 7.75 14.625 7.75Z" fill="white"/>
<defs>
<radialGradient id="paint0_radial_2004_31870" cx="0" cy="0" r="1" gradientTransform="matrix(13.5938 -20.3437 19.6875 14.0469 11.25 22.2813)" gradientUnits="userSpaceOnUse">
<stop stop-color="#B13589"/>
<stop offset="0.79309" stop-color="#C62F94"/>
<stop offset="1" stop-color="#8A3AC8"/>
</radialGradient>
<radialGradient id="paint1_radial_2004_31870" cx="0" cy="0" r="1" gradientTransform="matrix(8.90623 -19.8593 19.2187 9.20311 10.3125 30.0313)" gradientUnits="userSpaceOnUse">
<stop stop-color="#E0E8B7"/>
<stop offset="0.444662" stop-color="#FB8A2E"/>
<stop offset="0.71474" stop-color="#E2425C"/>
<stop offset="1" stop-color="#E2425C" stop-opacity="0"/>
</radialGradient>
<radialGradient id="paint2_radial_2004_31870" cx="0" cy="0" r="1" gradientTransform="matrix(36.0938 -5.32813 1.10287 7.97742 0.46875 2.90625)" gradientUnits="userSpaceOnUse">
<stop offset="0.156701" stop-color="#406ADC"/>
<stop offset="0.467799" stop-color="#6A45BE"/>
<stop offset="1" stop-color="#6A45BE" stop-opacity="0"/>
</radialGradient>
</defs>
</svg>
