<svg width="96" height="28" viewBox="0 0 96 28" fill="none" xmlns="http://www.w3.org/2000/svg">
<g clip-path="url(#clip0_44_13916)">
<path d="M36.4512 2C40.3765 2.00013 43.5596 5.17056 43.5596 9.08008C43.5595 12.3698 41.3054 15.1352 38.252 15.9297L44.5713 26H38.8867L32.6895 16.1602H30.2578V26H25.4385V2H36.4512ZM64.8086 6.32031H53.7285V11.8398H64.3721V16.1602H53.7285V21.2002H64.7529L65.2949 26H48.9092V2H65.2949L64.8086 6.32031ZM83.125 2C89.7782 2 95.1738 7.3736 95.1738 14H90.3545C90.3545 10.0232 87.1179 6.7998 83.125 6.7998C79.1323 6.80006 75.8965 10.2057 75.8965 14C75.8965 17.7943 78.8457 20.9026 82.583 21.1787L83.125 26C76.472 25.9998 71.0771 20.6262 71.0771 14C71.0771 7.37375 76.4696 2.00025 83.125 2ZM87.8711 13.46C87.859 13.6375 87.8496 13.8176 87.8496 14C87.8496 17.9768 91.0862 21.2002 95.0791 21.2002V26C88.4259 26 83.0303 20.6264 83.0303 14L87.8711 13.46ZM3.5293 5.51367C8.23541 0.828894 15.8646 0.828937 20.5684 5.51367L17.1611 8.90723C14.337 6.09447 9.76067 6.09444 6.93652 8.90723C4.11258 11.72 4.24255 16.4077 6.93652 19.0908C9.63056 21.774 13.9207 21.894 16.7617 19.458L20.5684 22.4844C15.8622 27.1713 8.23534 27.1714 3.5293 22.4844C-1.17677 17.7972 -1.17665 10.2009 3.5293 5.51367ZM30.2578 11.8398H36.4512C37.9788 11.8397 39.2216 10.6016 39.2217 9.08008C39.2217 7.55856 37.9788 6.32044 36.4512 6.32031H30.2578V11.8398Z" fill="#705CFF"/>
</g>
<defs>
<clipPath id="clip0_44_13916">
<rect width="95.1741" height="28" fill="white"/>
</clipPath>
</defs>
</svg>
