<svg width="30" height="30" viewBox="0 0 30 30" fill="none" xmlns="http://www.w3.org/2000/svg">
<path d="M5.9375 19.0062L6.01036 19.2119C6.00103 19.1883 5.97437 19.1164 5.9375 19.0062ZM8.82066 14.3447C8.94861 13.2394 9.38308 12.6206 10.2018 11.9862C11.3733 11.127 12.8367 11.613 12.8367 11.613V8.72987C13.1924 8.72039 13.5483 8.74239 13.9002 8.79562V12.506C13.9002 12.506 12.4373 12.02 11.2658 12.8796C10.4475 13.5135 10.0121 14.1328 9.88463 15.2381C9.88064 15.8383 9.98859 16.6228 10.4857 17.3012C10.3628 17.2354 10.2375 17.1605 10.1099 17.0764C9.0148 16.3092 8.81533 15.1581 8.82066 14.3447ZM19.9424 3.39891C19.1365 2.47754 18.8318 1.54729 18.7216 0.893799H19.7354C19.7354 0.893799 19.5332 2.60726 21.0064 4.29229L21.0268 4.31494C20.6298 4.05437 20.2657 3.7468 19.9424 3.39891ZM24.826 6.01108V9.6468C24.826 9.6468 23.5323 9.59393 22.575 9.33982C21.2383 8.98443 20.3791 8.43933 20.3791 8.43933C20.3791 8.43933 19.7856 8.05062 19.7376 8.02352V15.5313C19.7376 15.9493 19.6279 16.9933 19.2933 17.864C18.8566 19.0031 18.1827 19.7508 18.0588 19.9036C18.0588 19.9036 17.2391 20.9142 15.7931 21.5948C14.4897 22.2088 13.3453 22.1932 13.0032 22.2088C13.0032 22.2088 11.025 22.2905 9.24492 21.0835C8.85998 20.8175 8.50067 20.5161 8.17162 20.1834L8.1805 20.1901C9.96105 21.3971 11.9388 21.3154 11.9388 21.3154C12.2813 21.2998 13.4257 21.3154 14.7287 20.7014C16.1734 20.0209 16.9944 19.0102 16.9944 19.0102C17.117 18.8574 17.794 18.1097 18.2289 16.9702C18.5626 16.0999 18.6732 15.0555 18.6732 14.6375V7.13058C18.7212 7.15813 19.3142 7.54684 19.3142 7.54684C19.3142 7.54684 20.1738 8.09238 21.5106 8.44733C22.4684 8.70144 23.7616 8.7543 23.7616 8.7543V5.90535C24.204 6.00886 24.5812 6.03685 24.826 6.01108Z" fill="#EE1D52"/>
<path d="M23.7583 5.90535V8.75342C23.7583 8.75342 22.4651 8.70055 21.5073 8.44644C20.1706 8.09104 19.311 7.54595 19.311 7.54595C19.311 7.54595 18.7179 7.15724 18.6699 7.12969V14.6384C18.6699 15.0564 18.5602 16.1008 18.2257 16.9711C17.789 18.1106 17.1151 18.8583 16.9911 19.0111C16.9911 19.0111 16.1711 20.0217 14.7255 20.7023C13.4225 21.3163 12.2781 21.3007 11.9356 21.3163C11.9356 21.3163 9.95781 21.398 8.17727 20.191L8.16839 20.1843C7.9804 19.9944 7.80345 19.7939 7.6384 19.5837C7.07021 18.8609 6.72192 18.0062 6.6344 17.7623C6.63425 17.7613 6.63425 17.7602 6.6344 17.7592C6.49358 17.3354 6.19771 16.3176 6.23813 15.3318C6.30966 13.5926 6.89606 12.5251 7.05111 12.2576C7.46172 11.5283 7.99578 10.8758 8.62952 10.3292C9.18875 9.85742 9.82262 9.48209 10.5051 9.21854C11.2429 8.90911 12.033 8.74325 12.833 8.72987V11.613C12.833 11.613 11.3696 11.1288 10.1986 11.9862C9.37985 12.6206 8.94538 13.2394 8.81743 14.3447C8.8121 15.1581 9.01157 16.3092 10.1057 17.0768C10.2334 17.1612 10.3587 17.2362 10.4816 17.3016C10.6727 17.5609 10.9054 17.7868 11.1702 17.9702C12.239 18.6761 13.1346 18.7254 14.2799 18.267C15.0436 17.9604 15.6184 17.2696 15.885 16.5042C16.0524 16.0262 16.0502 15.5451 16.0502 15.0475V0.893799H18.7157C18.8259 1.54729 19.1306 2.47754 19.9365 3.39891C20.2598 3.7468 20.6239 4.05437 21.0209 4.31494C21.1382 4.44156 21.7379 5.0675 22.5078 5.45177C22.9059 5.6504 23.3255 5.8026 23.7583 5.90535Z" fill="black"/>
<path d="M5.57812 16.877V16.8792L5.64387 17.0662C5.63632 17.0444 5.61189 16.9782 5.57812 16.877Z" fill="#69C9D0"/>
<path d="M10.5041 9.21864C9.82157 9.48218 9.1877 9.85752 8.62847 10.3293C7.99453 10.8772 7.46061 11.531 7.0505 12.2617C6.89546 12.5283 6.30906 13.5967 6.23753 15.3359C6.19711 16.3217 6.49297 17.3395 6.6338 17.7633C6.63365 17.7643 6.63365 17.7654 6.6338 17.7664C6.72265 18.0081 7.06961 18.8628 7.6378 19.5878C7.80285 19.798 7.9798 19.9985 8.16779 20.1884C7.56547 19.7719 7.0283 19.2682 6.57383 18.694C6.01052 17.9774 5.66312 17.1316 5.57249 16.8819C5.57239 16.8801 5.57239 16.8783 5.57249 16.8766V16.8735C5.43122 16.4501 5.13447 15.4319 5.17578 14.4448C5.24731 12.7055 5.83371 11.638 5.98875 11.3706C6.39874 10.6398 6.93268 9.98591 7.56672 9.4381C8.12584 8.9662 8.75973 8.59084 9.44233 8.32748C9.8681 8.15082 10.3116 8.0205 10.7653 7.93876C11.449 7.81942 12.1472 7.80907 12.8342 7.90811V8.72997C12.0334 8.74307 11.2426 8.90893 10.5041 9.21864Z" fill="#69C9D0"/>
<path d="M18.7203 0.893825H16.0548V15.048C16.0548 15.5455 16.0548 16.0253 15.8895 16.5047C15.6203 17.2697 15.0477 17.9605 14.2845 18.267C13.1388 18.7272 12.2431 18.6761 11.1747 17.9702C10.9095 17.7876 10.6763 17.5625 10.4844 17.3039C11.3946 17.7894 12.2094 17.781 13.2187 17.3758C13.9815 17.0693 14.555 16.3785 14.8233 15.6131C14.9913 15.1351 14.989 14.6539 14.989 14.1568V0H18.6696C18.6696 0 18.6283 0.351844 18.7203 0.893825ZM23.7607 5.11773V5.90538C23.3286 5.80246 22.9097 5.65027 22.5124 5.4518C21.7425 5.06753 21.1427 4.44158 21.0255 4.31497C21.1616 4.40432 21.3028 4.48561 21.4484 4.55842C22.3844 5.02577 23.3062 5.16526 23.7607 5.11773Z" fill="#69C9D0"/>
<path d="M18.8158 27.734C18.8156 27.8353 18.8305 27.9361 18.8603 28.033C18.8617 28.0398 18.8638 28.0465 18.8665 28.0529C18.9375 28.2821 19.08 28.4825 19.2731 28.6248C19.4662 28.7671 19.6999 28.8438 19.9398 28.8437V29.9805C19.3862 29.9805 18.99 30.0001 18.3849 29.6433C17.699 29.2364 17.3125 28.4923 17.3125 27.7198C17.3125 26.9228 17.7452 26.1245 18.4786 25.7397C19.0117 25.4608 19.4156 25.459 19.9411 25.459V26.5954C19.6429 26.5954 19.3569 26.7138 19.146 26.9247C18.9352 27.1356 18.8167 27.4216 18.8167 27.7198L18.8158 27.734Z" fill="#69C9D0"/>
<path d="M21.0693 27.734C21.0693 27.8353 21.0543 27.936 21.0248 28.033C21.0248 28.0396 21.0208 28.0463 21.0186 28.0529C20.9475 28.282 20.805 28.4824 20.6119 28.6246C20.4187 28.7669 20.1852 28.8437 19.9453 28.8437V29.9805C20.4984 29.9805 20.8951 30.0001 21.498 29.6433C22.1861 29.2364 22.5735 28.4923 22.5735 27.7198C22.5735 26.9228 22.1408 26.1245 21.4073 25.7397C20.8742 25.4608 20.4704 25.459 19.9453 25.459V26.5954C20.2434 26.5955 20.5293 26.714 20.7401 26.9249C20.9509 27.1357 21.0693 27.4216 21.0693 27.7198V27.734Z" fill="#EE1D52"/>
<path d="M2.53906 24.4277H6.7021L6.31738 25.573H5.22631V29.9564H3.8878V25.573H2.53906V24.4277ZM13.5719 24.4277V25.573H14.9207V29.9564H16.261V25.573H17.3503L17.735 24.4277H13.5719ZM7.60792 25.7329C7.7362 25.7328 7.86158 25.6947 7.96819 25.6234C8.0748 25.552 8.15787 25.4507 8.20687 25.3321C8.25588 25.2136 8.26864 25.0832 8.24353 24.9574C8.21841 24.8316 8.15656 24.716 8.06579 24.6254C7.97502 24.5347 7.85941 24.473 7.73358 24.4481C7.60774 24.4232 7.47734 24.4361 7.35886 24.4853C7.24037 24.5344 7.13913 24.6176 7.06794 24.7244C6.99674 24.8311 6.95879 24.9565 6.95888 25.0848C6.95888 25.17 6.97567 25.2543 7.0083 25.333C7.04093 25.4117 7.08875 25.4832 7.14903 25.5434C7.20931 25.6036 7.28087 25.6513 7.35961 25.6838C7.43835 25.7164 7.52273 25.733 7.60792 25.7329ZM6.95888 29.9564H8.27296V26.1914H6.95888V29.9564ZM13.0006 25.7001H11.4635L10.1388 27.0248V24.4322H8.83315L8.82916 29.9564H10.1472V28.517L10.5573 28.1434L11.8367 29.9546H13.2459L11.3925 27.306L13.0006 25.7001ZM25.607 27.3069L27.2139 25.7001H25.6772L24.352 27.0248V24.4322H23.0468L23.0406 29.9564H24.3591V28.517L24.7732 28.1434L26.0526 29.9546H27.4622L25.607 27.3069ZM22.2281 27.7187C22.2281 28.9671 21.2023 29.9795 19.9371 29.9795C18.6719 29.9795 17.6461 28.9671 17.6461 27.7187C17.6461 26.4704 18.6719 25.4579 19.9371 25.4579C21.2023 25.4579 22.2281 26.4708 22.2281 27.7196V27.7187ZM21.0611 27.7187C21.0611 27.4964 20.9951 27.2791 20.8716 27.0943C20.7481 26.9095 20.5726 26.7654 20.3672 26.6803C20.1618 26.5953 19.9359 26.573 19.7178 26.6164C19.4998 26.6597 19.2995 26.7668 19.1424 26.924C18.9852 27.0812 18.8781 27.2814 18.8348 27.4994C18.7914 27.7175 18.8136 27.9435 18.8987 28.1488C18.9838 28.3542 19.1278 28.5297 19.3127 28.6532C19.4975 28.7767 19.7148 28.8427 19.9371 28.8427C20.235 28.8427 20.5208 28.7244 20.7315 28.5138C20.9423 28.3032 21.0608 28.0175 21.0611 27.7196V27.7187Z" fill="black"/>
</svg>
