<svg width="30" height="30" viewBox="0 0 30 30" fill="none" xmlns="http://www.w3.org/2000/svg">
<g clip-path="url(#clip0_2004_31862)">
<path fill-rule="evenodd" clip-rule="evenodd" d="M11.9025 18.9187L11.9016 10.4298L20.0072 14.6889L11.9025 18.9187ZM29.7 8.95885C29.7 8.95885 29.4066 6.87701 28.5075 5.96024C27.3666 4.75644 26.0878 4.75077 25.5019 4.6809C21.3037 4.375 15.0066 4.375 15.0066 4.375H14.9934C14.9934 4.375 8.69625 4.375 4.49813 4.6809C3.91125 4.75077 2.63344 4.75644 1.49157 5.96024C0.592503 6.87701 0.299997 8.95885 0.299997 8.95885C0.299997 8.95885 0 11.4042 0 13.8486V16.141C0 18.5864 0.299997 21.0308 0.299997 21.0308C0.299997 21.0308 0.592503 23.1126 1.49157 24.0294C2.63344 25.2332 4.1325 25.1954 4.8 25.321C7.2 25.5532 15 25.625 15 25.625C15 25.625 21.3037 25.6156 25.5019 25.3097C26.0878 25.2388 27.3666 25.2332 28.5075 24.0294C29.4066 23.1126 29.7 21.0308 29.7 21.0308C29.7 21.0308 30 18.5864 30 16.141V13.8486C30 11.4042 29.7 8.95885 29.7 8.95885Z" fill="#CE1312"/>
</g>
<defs>
<clipPath id="clip0_2004_31862">
<rect width="30" height="30" fill="white"/>
</clipPath>
</defs>
</svg>
