<svg width="15" height="15" viewBox="0 0 15 15" fill="none" xmlns="http://www.w3.org/2000/svg">
<path d="M9.01466 1.28783L8.85599 1.06561C8.19124 0.135032 6.80824 0.135032 6.14349 1.06561L5.98483 1.28783C5.63384 1.77916 5.04461 2.04226 4.44452 1.97557L3.737 1.89697C2.67548 1.77902 1.77853 2.67597 1.89648 3.73749L1.97509 4.44501C2.04177 5.0451 1.77867 5.63433 1.28734 5.98532L1.06512 6.14398C0.134544 6.80873 0.134544 8.19173 1.06512 8.85648L1.28734 9.01515C1.77867 9.36615 2.04177 9.9554 1.97509 10.5555L1.89648 11.263C1.77853 12.3245 2.67548 13.2215 3.737 13.1035L4.44452 13.0249C5.04461 12.9582 5.63384 13.2213 5.98483 13.7127L6.14349 13.9348C6.80824 14.8654 8.19124 14.8654 8.85599 13.9348L9.01466 13.7127C9.36566 13.2213 9.95491 12.9582 10.555 13.0249L11.2625 13.1035C12.324 13.2215 13.221 12.3245 13.103 11.263L13.0244 10.5555C12.9577 9.9554 13.2208 9.36615 13.7122 9.01515L13.9343 8.85648C14.8649 8.19173 14.8649 6.80873 13.9343 6.14398L13.7122 5.98532C13.2208 5.63433 12.9577 5.0451 13.0244 4.44501L13.103 3.73749C13.221 2.67597 12.324 1.77902 11.2625 1.89697L10.555 1.97557C9.95491 2.04226 9.36566 1.77916 9.01466 1.28783Z" fill="#3B6FFF"/>
<path d="M5 7.66667L6.51575 9.18242C6.59908 9.26575 6.73425 9.26575 6.81758 9.18242L10 6" stroke="white" stroke-linecap="round" stroke-linejoin="round"/>
</svg>
