<svg width="20" height="20" viewBox="0 0 20 20" fill="none" xmlns="http://www.w3.org/2000/svg">
<path d="M10 3.82732C9.04193 3.82285 8.08735 3.94359 7.16053 4.18647L8.28287 5.36492C8.85038 5.27122 9.42486 5.22616 10 5.23024C11.1335 5.18228 12.2636 5.38355 13.3108 5.81987C14.3579 6.25619 15.2966 6.91693 16.0606 7.75549C16.6565 8.41988 17.1381 9.17837 17.486 10.0002C17.1381 10.822 16.6565 11.5804 16.0606 12.2448C15.926 12.3907 15.7913 12.5366 15.6454 12.6713L16.6443 13.6702C17.7031 12.6498 18.5034 11.3917 18.9787 10.0002C18.3483 8.14038 17.1332 6.53437 15.515 5.42186C13.8968 4.30935 11.9622 3.75 10 3.82732ZM15.6117 14.5568L14.6016 13.5467L6.77894 5.79141L5.6566 4.66907L4.32103 3.3335L3.33337 4.32115L4.45571 5.44349C2.85979 6.56298 1.65793 8.15761 1.02136 10.0002C1.65182 11.8599 2.86683 13.466 4.48503 14.5785C6.10323 15.691 8.03783 16.2503 10 16.173C11.4766 16.1926 12.9397 15.89 14.2874 15.2864L15.6791 16.6668L16.6667 15.6792L15.5444 14.5568H15.6117ZM8.49611 9.48389L10.3704 11.3582C10.2362 11.3744 10.1006 11.3744 9.96637 11.3582C9.577 11.3804 9.19404 11.2517 8.89719 10.9988C8.60034 10.7458 8.41246 10.3881 8.37265 10.0002C8.37588 9.82116 8.41801 9.64499 8.49611 9.48389ZM10 14.7701C8.86662 14.818 7.73649 14.6168 6.68932 14.1805C5.64215 13.7441 4.70346 13.0834 3.93943 12.2448C3.34362 11.5804 2.86198 10.822 2.51407 10.0002C2.86198 9.17837 3.34362 8.41988 3.93943 7.75549C4.39961 7.25006 4.92854 6.8118 5.5107 6.45359L7.46356 8.46256C7.14085 8.91016 6.968 9.44837 6.96974 10.0002C6.98272 10.3839 7.07162 10.7613 7.23128 11.1105C7.39095 11.4598 7.61823 11.7739 7.89998 12.0348C8.18174 12.2957 8.51239 12.4981 8.87285 12.6305C9.2333 12.7629 9.6164 12.8225 10 12.806C10.5168 12.8062 11.0257 12.679 11.4815 12.4356L13.2548 14.2089C12.2139 14.5956 11.1103 14.7859 10 14.7701Z" fill="#373739"/>
</svg>
