<svg width="16" height="16" viewBox="0 0 16 16" fill="none" xmlns="http://www.w3.org/2000/svg">
<path d="M13.16 5.55362L9.53329 1.55362C9.47096 1.48455 9.39487 1.4293 9.30991 1.39141C9.22494 1.35352 9.13299 1.33384 9.03996 1.33362H4.37329C4.15179 1.33097 3.93194 1.37199 3.72629 1.45432C3.52065 1.53665 3.33323 1.65868 3.17475 1.81345C3.01627 1.96822 2.88982 2.15269 2.80264 2.35633C2.71545 2.55996 2.66924 2.77878 2.66663 3.00028V13.0003C2.66924 13.2218 2.71545 13.4406 2.80264 13.6442C2.88982 13.8479 3.01627 14.0323 3.17475 14.1871C3.33323 14.3419 3.52065 14.4639 3.72629 14.5462C3.93194 14.6286 4.15179 14.6696 4.37329 14.6669H11.6266C11.8481 14.6696 12.068 14.6286 12.2736 14.5462C12.4793 14.4639 12.6667 14.3419 12.8252 14.1871C12.9837 14.0323 13.1101 13.8479 13.1973 13.6442C13.2845 13.4406 13.3307 13.2218 13.3333 13.0003V6.00028C13.3329 5.83506 13.2711 5.67588 13.16 5.55362ZM11.7666 6.00028H9.13996C9.00252 5.98675 8.8759 5.91977 8.78737 5.81378C8.69883 5.70779 8.65547 5.57127 8.66663 5.43362V2.66695H8.73996L11.7666 6.00028ZM11.6266 13.3336H4.37329C4.32688 13.3363 4.28038 13.3298 4.23648 13.3145C4.19257 13.2992 4.15212 13.2754 4.11743 13.2444C4.08275 13.2135 4.05452 13.176 4.03436 13.1341C4.0142 13.0922 4.00251 13.0467 3.99996 13.0003V3.00028C4.00251 2.95386 4.0142 2.90839 4.03436 2.86649C4.05452 2.8246 4.08275 2.78709 4.11743 2.75612C4.15212 2.72515 4.19257 2.70134 4.23648 2.68604C4.28038 2.67073 4.32688 2.66425 4.37329 2.66695H7.33329V5.43362C7.32253 5.9247 7.50646 6.4001 7.84494 6.75606C8.18342 7.11203 8.64896 7.31965 9.13996 7.33362H12V13.0003C11.9974 13.0467 11.9857 13.0922 11.9656 13.1341C11.9454 13.176 11.9172 13.2135 11.8825 13.2444C11.8478 13.2754 11.8073 13.2992 11.7634 13.3145C11.7195 13.3298 11.673 13.3363 11.6266 13.3336Z" fill="white"/>
</svg>
