<svg width="22" height="22" viewBox="0 0 22 22" fill="none" xmlns="http://www.w3.org/2000/svg">
<path d="M16.5 1.375H5.5C3.22183 1.375 1.375 3.22183 1.375 5.5V16.5C1.375 18.7782 3.22183 20.625 5.5 20.625H16.5C18.7782 20.625 20.625 18.7782 20.625 16.5V5.5C20.625 3.22183 18.7782 1.375 16.5 1.375Z" fill="url(#paint0_radial_666_14342)"/>
<path d="M16.5 1.375H5.5C3.22183 1.375 1.375 3.22183 1.375 5.5V16.5C1.375 18.7782 3.22183 20.625 5.5 20.625H16.5C18.7782 20.625 20.625 18.7782 20.625 16.5V5.5C20.625 3.22183 18.7782 1.375 16.5 1.375Z" fill="url(#paint1_radial_666_14342)"/>
<path d="M16.5 1.375H5.5C3.22183 1.375 1.375 3.22183 1.375 5.5V16.5C1.375 18.7782 3.22183 20.625 5.5 20.625H16.5C18.7782 20.625 20.625 18.7782 20.625 16.5V5.5C20.625 3.22183 18.7782 1.375 16.5 1.375Z" fill="url(#paint2_radial_666_14342)"/>
<path d="M15.8125 7.21875C15.8125 7.78828 15.3508 8.25 14.7812 8.25C14.2117 8.25 13.75 7.78828 13.75 7.21875C13.75 6.6492 14.2117 6.1875 14.7812 6.1875C15.3508 6.1875 15.8125 6.6492 15.8125 7.21875Z" fill="white"/>
<path fill-rule="evenodd" clip-rule="evenodd" d="M11 14.4375C12.8985 14.4375 14.4375 12.8985 14.4375 11C14.4375 9.10154 12.8985 7.5625 11 7.5625C9.10154 7.5625 7.5625 9.10154 7.5625 11C7.5625 12.8985 9.10154 14.4375 11 14.4375ZM11 13.0625C12.1391 13.0625 13.0625 12.1391 13.0625 11C13.0625 9.86088 12.1391 8.9375 11 8.9375C9.86088 8.9375 8.9375 9.86088 8.9375 11C8.9375 12.1391 9.86088 13.0625 11 13.0625Z" fill="white"/>
<path fill-rule="evenodd" clip-rule="evenodd" d="M4.125 10.725C4.125 8.41479 4.125 7.25966 4.5746 6.37729C4.97008 5.60112 5.60112 4.97008 6.37729 4.5746C7.25966 4.125 8.41479 4.125 10.725 4.125H11.275C13.5852 4.125 14.7403 4.125 15.6227 4.5746C16.3989 4.97008 17.0299 5.60112 17.4254 6.37729C17.875 7.25966 17.875 8.41479 17.875 10.725V11.275C17.875 13.5852 17.875 14.7403 17.4254 15.6227C17.0299 16.3989 16.3989 17.0299 15.6227 17.4254C14.7403 17.875 13.5852 17.875 11.275 17.875H10.725C8.41479 17.875 7.25966 17.875 6.37729 17.4254C5.60112 17.0299 4.97008 16.3989 4.5746 15.6227C4.125 14.7403 4.125 13.5852 4.125 11.275V10.725ZM10.725 5.5H11.275C12.4528 5.5 13.2534 5.50107 13.8723 5.55163C14.4752 5.60088 14.7835 5.69016 14.9985 5.79973C15.5159 6.06339 15.9366 6.48408 16.2002 7.0015C16.3098 7.21655 16.3991 7.52482 16.4484 8.12769C16.4989 8.74658 16.5 9.54718 16.5 10.725V11.275C16.5 12.4528 16.4989 13.2534 16.4484 13.8723C16.3991 14.4752 16.3098 14.7835 16.2002 14.9985C15.9366 15.5159 15.5159 15.9366 14.9985 16.2002C14.7835 16.3098 14.4752 16.3991 13.8723 16.4484C13.2534 16.4989 12.4528 16.5 11.275 16.5H10.725C9.54718 16.5 8.74658 16.4989 8.12769 16.4484C7.52482 16.3991 7.21655 16.3098 7.0015 16.2002C6.48408 15.9366 6.06339 15.5159 5.79973 14.9985C5.69016 14.7835 5.60088 14.4752 5.55163 13.8723C5.50107 13.2534 5.5 12.4528 5.5 11.275V10.725C5.5 9.54718 5.50107 8.74658 5.55163 8.12769C5.60088 7.52482 5.69016 7.21655 5.79973 7.0015C6.06339 6.48408 6.48408 6.06339 7.0015 5.79973C7.21655 5.69016 7.52482 5.60088 8.12769 5.55163C8.74658 5.50107 9.54718 5.5 10.725 5.5Z" fill="white"/>
<defs>
<radialGradient id="paint0_radial_666_14342" cx="0" cy="0" r="1" gradientUnits="userSpaceOnUse" gradientTransform="translate(8.25 15.8125) rotate(-55.3758) scale(17.5447)">
<stop stop-color="#B13589"/>
<stop offset="0.79309" stop-color="#C62F94"/>
<stop offset="1" stop-color="#8A3AC8"/>
</radialGradient>
<radialGradient id="paint1_radial_666_14342" cx="0" cy="0" r="1" gradientUnits="userSpaceOnUse" gradientTransform="translate(7.5625 21.3125) rotate(-65.1363) scale(15.5335)">
<stop stop-color="#E0E8B7"/>
<stop offset="0.444662" stop-color="#FB8A2E"/>
<stop offset="0.71474" stop-color="#E2425C"/>
<stop offset="1" stop-color="#E2425C" stop-opacity="0"/>
</radialGradient>
<radialGradient id="paint2_radial_666_14342" cx="0" cy="0" r="1" gradientUnits="userSpaceOnUse" gradientTransform="translate(0.34375 2.0625) rotate(-8.1301) scale(26.7375 5.71887)">
<stop offset="0.156701" stop-color="#406ADC"/>
<stop offset="0.467799" stop-color="#6A45BE"/>
<stop offset="1" stop-color="#6A45BE" stop-opacity="0"/>
</radialGradient>
</defs>
</svg>
