<svg width="21" height="15" viewBox="0 0 21 15" fill="none" xmlns="http://www.w3.org/2000/svg">
<path d="M7.374 12.8698C7.13077 13.0924 6.94252 13.2414 6.75015 13.3503C5.80845 13.8832 4.64825 13.8832 3.70656 13.3503C3.35954 13.1538 3.02597 12.8268 2.35883 12.1729C1.69168 11.5189 1.3581 11.1919 1.15777 10.8516C0.614078 9.92846 0.614078 8.79108 1.15777 7.86792C1.3581 7.52778 1.69168 7.20077 2.35883 6.54674L5.22835 3.7337C5.8955 3.07968 6.22907 2.75267 6.57608 2.55627C7.51777 2.02329 8.678 2.02329 9.61969 2.55626C9.96666 2.75267 10.3002 3.07968 10.9674 3.7337C11.6345 4.38771 11.9681 4.71472 12.1685 5.0549C12.7122 5.97805 12.7122 7.11544 12.1685 8.03859C12.0574 8.22716 11.9054 8.41175 11.6783 8.65015M8.82176 5.84985C8.59461 6.08825 8.44263 6.27284 8.33154 6.46141C7.78789 7.38456 7.78789 8.52195 8.33154 9.4451C8.53191 9.78534 8.86549 10.1124 9.53264 10.7663C10.1998 11.4203 10.5334 11.7473 10.8803 11.9437C11.822 12.4767 12.9822 12.4767 13.9239 11.9437C14.271 11.7473 14.6046 11.4203 15.2717 10.7663L18.1412 7.95326C18.8084 7.29923 19.142 6.97222 19.3422 6.63208C19.8859 5.70892 19.8859 4.57153 19.3422 3.64837C19.142 3.30819 18.8084 2.98118 18.1412 2.32717C17.4741 1.67315 17.1405 1.34615 16.7935 1.14974C15.8517 0.616753 14.6916 0.616753 13.7499 1.14974C13.5575 1.25863 13.3693 1.40764 13.126 1.63026" stroke="#705CFF" stroke-width="1.5" stroke-linecap="round"/>
</svg>
