<svg width="18" height="18" viewBox="0 0 18 18" fill="none" xmlns="http://www.w3.org/2000/svg">
<rect width="18" height="18" rx="9" fill="#705CFF"/>
<path d="M7.24943 11.4327L5.22527 9.40856C5.1162 9.29949 4.96827 9.23822 4.81402 9.23822C4.65977 9.23822 4.51184 9.29949 4.40277 9.40856C4.2937 9.51763 4.23242 9.66556 4.23242 9.81981C4.23242 9.89619 4.24747 9.97182 4.27669 10.0424C4.30592 10.1129 4.34876 10.1771 4.40277 10.2311L6.8411 12.6694C7.0686 12.8969 7.4361 12.8969 7.6636 12.6694L13.8353 6.49773C13.9443 6.38866 14.0056 6.24073 14.0056 6.08648C14.0056 5.93223 13.9443 5.7843 13.8353 5.67523C13.7262 5.56616 13.5783 5.50488 13.424 5.50488C13.2698 5.50488 13.1218 5.56616 13.0128 5.67523L7.24943 11.4327Z" fill="white" stroke="white" stroke-width="0.8"/>
</svg>
