<svg width="22" height="22" viewBox="0 0 22 22" fill="none" xmlns="http://www.w3.org/2000/svg">
<path d="M4.35352 13.9379L4.40694 14.0888C4.4001 14.0715 4.38056 14.0187 4.35352 13.9379ZM6.46783 10.5195C6.56166 9.70898 6.88027 9.25516 7.48069 8.78995C8.33977 8.15988 9.4129 8.51629 9.4129 8.51629V6.40197C9.67378 6.39501 9.93477 6.41115 10.1928 6.45019V9.17111C10.1928 9.17111 9.12002 8.8147 8.26093 9.44509C7.66085 9.90998 7.34158 10.3641 7.24808 11.1747C7.24515 11.6148 7.32431 12.1901 7.68886 12.6876C7.59873 12.6394 7.50686 12.5844 7.41325 12.5227C6.6102 11.9601 6.46393 11.116 6.46783 10.5195ZM14.6238 2.4926C14.0328 1.81693 13.8093 1.13474 13.7285 0.655518H14.472C14.472 0.655518 14.3237 1.91206 15.404 3.14774L15.419 3.16436C15.1278 2.97327 14.8608 2.74772 14.6238 2.4926ZM18.2051 4.40819V7.07438C18.2051 7.07438 17.2564 7.03561 16.5543 6.84927C15.5741 6.58864 14.944 6.18891 14.944 6.18891C14.944 6.18891 14.5088 5.90385 14.4736 5.88398V11.3897C14.4736 11.6962 14.3931 12.4618 14.1478 13.1004C13.8276 13.9357 13.3333 14.4839 13.2425 14.596C13.2425 14.596 12.6414 15.3372 11.581 15.8363C10.6251 16.2865 9.78592 16.2751 9.53506 16.2865C9.53506 16.2865 8.08436 16.3464 6.77896 15.4613C6.49667 15.2662 6.23317 15.0452 5.99187 14.8013L5.99838 14.8061C7.30412 15.6913 8.75449 15.6313 8.75449 15.6313C9.00567 15.6199 9.84488 15.6313 10.8004 15.1811C11.8598 14.682 12.4619 13.9409 12.4619 13.9409C12.5518 13.8288 13.0483 13.2805 13.3672 12.4449C13.6119 11.8067 13.693 11.0408 13.693 10.7342V5.22916C13.7282 5.24936 14.1631 5.53442 14.1631 5.53442C14.1631 5.53442 14.7935 5.93447 15.7738 6.19477C16.4762 6.38112 17.4245 6.41989 17.4245 6.41989V4.33065C17.749 4.40656 18.0256 4.42709 18.2051 4.40819Z" fill="#FF383C"/>
<path d="M17.4246 4.33065V6.41924C17.4246 6.41924 16.4763 6.38047 15.7739 6.19412C14.7936 5.9335 14.1632 5.53376 14.1632 5.53376C14.1632 5.53376 13.7283 5.24871 13.6931 5.22851V10.7349C13.6931 11.0414 13.6127 11.8073 13.3674 12.4455C13.0471 13.2812 12.5529 13.8295 12.462 13.9415C12.462 13.9415 11.8606 14.6827 10.8005 15.1818C9.84502 15.632 9.00581 15.6206 8.75463 15.632C8.75463 15.632 7.30425 15.6919 5.99852 14.8068L5.99201 14.8019C5.85415 14.6626 5.72438 14.5156 5.60335 14.3615C5.18667 13.8314 4.93126 13.2046 4.86708 13.0258C4.86697 13.025 4.86697 13.0242 4.86708 13.0235C4.76381 12.7127 4.54684 11.9663 4.57649 11.2434C4.62894 9.96797 5.05897 9.18512 5.17267 8.989C5.47379 8.45419 5.86543 7.97568 6.33017 7.57478C6.74027 7.22884 7.20511 6.9536 7.70561 6.76033C8.24668 6.53341 8.82607 6.41178 9.41271 6.40197V8.51629C9.41271 8.51629 8.33959 8.16119 7.48083 8.78995C6.88041 9.25516 6.5618 9.70898 6.46797 10.5195C6.46406 11.116 6.61034 11.9601 7.41274 12.5231C7.50635 12.585 7.59822 12.6399 7.68835 12.6879C7.82853 12.878 7.99914 13.0437 8.19331 13.1782C8.97714 13.6959 9.63391 13.732 10.4738 13.3958C11.0338 13.1711 11.4554 12.6645 11.6508 12.1031C11.7736 11.7526 11.772 11.3998 11.772 11.0349V0.655518H13.7267C13.8075 1.13474 14.031 1.81693 14.6219 2.4926C14.859 2.74772 15.126 2.97327 15.4172 3.16436C15.5032 3.25721 15.943 3.71623 16.5076 3.99803C16.7995 4.1437 17.1072 4.2553 17.4246 4.33065Z" fill="#373739"/>
<path d="M4.08936 12.3765V12.3781L4.13757 12.5152C4.13203 12.4993 4.11411 12.4507 4.08936 12.3765Z" fill="#69C9D0"/>
<path d="M7.70569 6.7604C7.20519 6.95367 6.74035 7.22891 6.33025 7.57485C5.86536 7.97665 5.47381 8.45617 5.17307 8.992C5.05937 9.18747 4.62934 9.97097 4.57689 11.2464C4.54725 11.9693 4.76422 12.7157 4.86749 13.0265C4.86738 13.0272 4.86738 13.028 4.86749 13.0288C4.93265 13.206 5.18708 13.8328 5.60375 14.3645C5.72479 14.5186 5.85455 14.6656 5.99241 14.8049C5.55071 14.4994 5.15679 14.1301 4.82351 13.709C4.41042 13.1835 4.15566 12.5632 4.0892 12.3801C4.08912 12.3788 4.08912 12.3775 4.0892 12.3762V12.3739C3.9856 12.0635 3.76798 11.3168 3.79828 10.5929C3.85073 9.31746 4.28076 8.5346 4.39445 8.33848C4.69511 7.80259 5.08667 7.32306 5.55163 6.92133C5.96165 6.57528 6.42651 6.30002 6.92708 6.10688C7.23931 5.97734 7.56457 5.88177 7.89725 5.82182C8.39862 5.7343 8.91068 5.72672 9.41442 5.79934V6.40204C8.82723 6.41165 8.24727 6.53328 7.70569 6.7604Z" fill="#69C9D0"/>
<path d="M13.7286 0.655472H11.7739V11.0352C11.7739 11.4001 11.7739 11.7519 11.6527 12.1034C11.4553 12.6644 11.0354 13.171 10.4757 13.3958C9.63551 13.7333 8.97873 13.6958 8.19523 13.1782C8.00073 13.0443 7.82967 12.8791 7.68896 12.6895C8.35649 13.0456 8.95397 13.0394 9.69415 12.7423C10.2535 12.5175 10.6741 12.0109 10.8709 11.4496C10.994 11.099 10.9924 10.7462 10.9924 10.3817V0H13.6915C13.6915 0 13.6612 0.258019 13.7286 0.655472ZM17.4249 3.753V4.33061C17.1081 4.25514 16.8009 4.14353 16.5095 3.99799C15.9449 3.71619 15.5051 3.25716 15.4191 3.16431C15.5189 3.22984 15.6225 3.28945 15.7292 3.34284C16.4157 3.68556 17.0917 3.78786 17.4249 3.753Z" fill="#69C9D0"/>
<path d="M13.7958 20.3382C13.7956 20.4126 13.8066 20.4865 13.8284 20.5575C13.8295 20.5625 13.831 20.5674 13.8329 20.5722C13.885 20.7402 13.9895 20.8872 14.1311 20.9915C14.2728 21.0959 14.4441 21.1521 14.62 21.152V21.9857C14.2141 21.9857 13.9235 22.0001 13.4798 21.7385C12.9768 21.44 12.6934 20.8944 12.6934 20.3278C12.6934 19.7434 13.0107 19.1579 13.5485 18.8758C13.9395 18.6712 14.2356 18.6699 14.621 18.6699V19.5033C14.4023 19.5033 14.1926 19.5901 14.038 19.7448C13.8833 19.8994 13.7965 20.1091 13.7965 20.3278L13.7958 20.3382Z" fill="#69C9D0"/>
<path d="M15.4507 20.3382C15.4507 20.4125 15.4397 20.4864 15.4181 20.5575C15.4181 20.5624 15.4152 20.5673 15.4136 20.5722C15.3614 20.7402 15.2569 20.8871 15.1153 20.9914C14.9736 21.0957 14.8024 21.152 14.6265 21.152V21.9857C15.0321 21.9857 15.323 22.0001 15.7651 21.7385C16.2697 21.44 16.5538 20.8944 16.5538 20.3278C16.5538 19.7434 16.2365 19.1579 15.6986 18.8758C15.3077 18.6712 15.0115 18.6699 14.6265 18.6699V19.5033C14.8451 19.5034 15.0547 19.5903 15.2093 19.7449C15.3639 19.8995 15.4507 20.1092 15.4507 20.3278V20.3382Z" fill="#FF383C"/>
<path d="M1.86133 17.9138H4.91422L4.6321 18.7537H3.83198V21.9682H2.8504V18.7537H1.86133V17.9138ZM9.9521 17.9138V18.7537H10.9412V21.9682H11.9241V18.7537H12.7229L13.005 17.9138H9.9521ZM5.57849 18.871C5.67256 18.8709 5.7645 18.8429 5.84269 18.7906C5.92087 18.7383 5.98178 18.664 6.01772 18.577C6.05366 18.4901 6.06302 18.3945 6.0446 18.3022C6.02619 18.21 5.98083 18.1252 5.91426 18.0588C5.8477 17.9923 5.76292 17.947 5.67064 17.9288C5.57836 17.9105 5.48273 17.92 5.39584 17.956C5.30896 17.9921 5.23471 18.0531 5.1825 18.1313C5.13029 18.2096 5.10246 18.3016 5.10252 18.3956C5.10252 18.4581 5.11484 18.52 5.13877 18.5777C5.1627 18.6354 5.19777 18.6878 5.24197 18.732C5.28618 18.7761 5.33865 18.8111 5.3964 18.835C5.45414 18.8588 5.51602 18.871 5.57849 18.871ZM5.10252 21.9682H6.06619V19.2072H5.10252V21.9682ZM9.53315 18.8469H8.40594L7.43447 19.8183V17.9171H6.47699L6.47406 21.9682H7.44066V20.9126L7.74135 20.6387L8.6796 21.9669H9.71298L8.35382 20.0246L9.53315 18.8469ZM18.7778 20.0252L19.9562 18.8469H18.8293L17.8575 19.8183V17.9171H16.9004L16.8958 21.9682H17.8627V20.9126L18.1663 20.6387L19.1046 21.9669H20.1383L18.7778 20.0252ZM16.2999 20.3272C16.2999 21.2427 15.5477 21.9851 14.6199 21.9851C13.6921 21.9851 12.9398 21.2427 12.9398 20.3272C12.9398 19.4118 13.6921 18.6693 14.6199 18.6693C15.5477 18.6693 16.2999 19.4121 16.2999 20.3279V20.3272ZM15.4441 20.3272C15.4441 20.1642 15.3958 20.0048 15.3052 19.8693C15.2146 19.7337 15.0859 19.6281 14.9353 19.5657C14.7847 19.5033 14.619 19.487 14.4591 19.5188C14.2992 19.5506 14.1523 19.6291 14.0371 19.7444C13.9218 19.8597 13.8433 20.0065 13.8115 20.1664C13.7797 20.3263 13.796 20.492 13.8584 20.6426C13.9208 20.7932 14.0264 20.922 14.162 21.0125C14.2975 21.1031 14.4569 21.1514 14.6199 21.1514C14.8384 21.1514 15.0479 21.0647 15.2025 20.9103C15.357 20.7558 15.4439 20.5463 15.4441 20.3279V20.3272Z" fill="#373739"/>
</svg>
