<svg width="22" height="22" viewBox="0 0 22 22" fill="none" xmlns="http://www.w3.org/2000/svg">
<path fill-rule="evenodd" clip-rule="evenodd" d="M8.7285 13.8736L8.72781 7.64847L14.6719 10.7718L8.7285 13.8736ZM21.78 6.56975C21.78 6.56975 21.5648 5.04306 20.9055 4.37076C20.0688 3.48798 19.1311 3.48381 18.7014 3.43258C15.6227 3.20825 11.0048 3.20825 11.0048 3.20825H10.9952C10.9952 3.20825 6.37725 3.20825 3.29863 3.43258C2.86825 3.48381 1.93119 3.48798 1.09381 4.37076C0.434502 5.04306 0.219998 6.56975 0.219998 6.56975C0.219998 6.56975 0 8.363 0 10.1556V11.8367C0 13.6299 0.219998 15.4225 0.219998 15.4225C0.219998 15.4225 0.434502 16.9492 1.09381 17.6215C1.93119 18.5043 3.0305 18.4766 3.52 18.5686C5.28 18.739 11 18.7916 11 18.7916C11 18.7916 15.6227 18.7847 18.7014 18.5603C19.1311 18.5084 20.0688 18.5043 20.9055 17.6215C21.5648 16.9492 21.78 15.4225 21.78 15.4225C21.78 15.4225 22 13.6299 22 11.8367V10.1556C22 8.363 21.78 6.56975 21.78 6.56975Z" fill="#FF383C"/>
</svg>
