<svg width="12" height="12" viewBox="0 0 12 12" fill="none" xmlns="http://www.w3.org/2000/svg">
<g clip-path="url(#clip0_195_25825)">
<path fill-rule="evenodd" clip-rule="evenodd" d="M4.761 7.56748L4.76062 4.17194L8.00288 5.87556L4.761 7.56748ZM11.88 3.58354C11.88 3.58354 11.7626 2.7508 11.403 2.38409C10.9466 1.90258 10.4351 1.90031 10.2007 1.87236C8.5215 1.75 6.00262 1.75 6.00262 1.75H5.99738C5.99738 1.75 3.4785 1.75 1.79925 1.87236C1.5645 1.90031 1.05338 1.90258 0.596626 2.38409C0.237001 2.7508 0.119999 3.58354 0.119999 3.58354C0.119999 3.58354 0 4.56168 0 5.53944V6.45641C0 7.43455 0.119999 8.41231 0.119999 8.41231C0.119999 8.41231 0.237001 9.24505 0.596626 9.61176C1.05338 10.0933 1.653 10.0782 1.92 10.1284C2.88 10.2213 6 10.25 6 10.25C6 10.25 8.5215 10.2462 10.2007 10.1239C10.4351 10.0955 10.9466 10.0933 11.403 9.61176C11.7626 9.24505 11.88 8.41231 11.88 8.41231C11.88 8.41231 12 7.43455 12 6.45641V5.53944C12 4.56168 11.88 3.58354 11.88 3.58354Z" fill="#CE1312"/>
</g>
<defs>
<clipPath id="clip0_195_25825">
<rect width="12" height="12" fill="white"/>
</clipPath>
</defs>
</svg>
